<?xml version="1.0" standalone="no"?>
<!DOCTYPE svg PUBLIC "-//W3C//DTD SVG 20010904//EN"
 "http://www.w3.org/TR/2001/REC-SVG-20010904/DTD/svg10.dtd">
<svg version="1.0" xmlns="http://www.w3.org/2000/svg"
 width="18.000000pt" height="18.000000pt" viewBox="0 0 18.000000 18.000000"
 preserveAspectRatio="xMidYMid meet">
<metadata>
Created by potrace 1.15, written by Peter Selinger 2001-2017
</metadata>
<g transform="translate(0.000000,18.000000) scale(0.100000,-0.100000)"
fill="#000000" stroke="none">
<path d="M7 173 c-13 -12 -7 -37 15 -60 l21 -23 -22 -24 c-26 -28 -25 -59 3
-64 10 -2 29 6 42 19 l24 22 24 -22 c47 -44 89 -2 45 45 l-22 24 22 24 c44 47
2 89 -45 45 l-24 -22 -23 21 c-23 22 -48 28 -60 15z"/>
</g>
</svg>
